<svg width="65" height="79" viewBox="0 0 65 79" fill="none" xmlns="http://www.w3.org/2000/svg">
<path d="M8.8035 20.9865C8.48108 20.6851 8.15223 20.3777 7.76884 19.9347C7.71276 20.1239 7.72844 20.4044 7.73165 20.6854C7.73613 21.0037 7.80676 21.4323 7.32368 21.3673C6.89696 21.3068 7.01909 20.853 7.02793 20.5592C7.03846 20.3152 7.13631 20.0684 7.24104 19.84C7.26431 19.7893 7.45876 19.814 7.76281 19.9411C8.23944 20 8.58456 19.8635 8.39744 19.314C8.36226 19.1965 8.45661 19.0309 8.48942 18.8924C8.48396 18.7302 8.47892 18.5805 8.47345 18.4183C8.46799 18.2561 8.46297 18.1064 8.45751 17.9442C8.45205 17.782 8.44701 17.6323 8.44155 17.4701C8.24714 16.8896 8.08412 16.3143 8.62315 15.8152C8.61769 15.653 8.61265 15.5033 8.60719 15.3411C8.60173 15.1789 8.59668 15.0292 8.59122 14.867C8.58576 14.7048 8.58072 14.5551 8.57526 14.3929C8.38084 13.8124 8.21785 13.2371 8.75688 12.738C8.75142 12.5758 8.74638 12.4261 8.74092 12.2639C8.3979 11.907 8.81789 11.7679 8.948 11.5512C8.94253 11.389 8.93749 11.2393 8.93203 11.0771C8.63556 10.6187 8.74127 10.2342 9.1296 9.89634C9.12414 9.73414 9.1191 9.58442 9.11364 9.42223C8.81716 8.96381 8.92288 8.57928 9.31121 8.24145C9.30575 8.07926 9.3007 7.92954 9.29524 7.76735C8.95222 7.41042 9.37223 7.27139 9.50234 7.05467C9.49687 6.89247 9.49183 6.74275 9.48637 6.58056C9.48091 6.41836 9.47587 6.26864 9.47041 6.10644C9.12739 5.74952 9.54739 5.61047 9.67749 5.39375C9.67203 5.23155 9.66698 5.08184 9.66152 4.91964C9.65606 4.75745 9.65102 4.60772 9.64556 4.44553C9.30254 4.0886 9.72254 3.94955 9.85264 3.73283C9.80582 3.64073 9.76547 3.55466 9.72468 3.45611C9.56755 3.05546 9.96848 2.53608 9.45808 2.21601C9.27021 2.57208 9.08882 2.93418 8.89492 3.2967C8.90039 3.45889 8.90543 3.6086 8.87934 3.94672C8.83882 4.04176 8.82339 3.95484 8.8084 3.8804C8.88326 3.87788 8.94565 3.87579 9.02051 3.87327C9.017 3.95458 9.01349 4.0359 8.99148 4.12407C8.9919 4.13655 8.89811 4.13345 8.8733 3.95317C8.89939 3.61505 8.89436 3.46534 8.8889 3.30314C8.6705 3.12313 8.14507 3.28446 8.23888 2.73171C7.89206 2.81833 7.54648 2.94238 7.19195 2.98554C7.09859 2.99493 6.88623 2.80848 6.88245 2.6962C6.85191 2.16013 6.8145 1.60555 6.88419 1.0786C6.91967 0.833838 7.26271 0.634918 6.70127 0.65382C5.82188 0.689673 5.78319 0.653504 5.55017 1.5232C5.42244 1.9959 5.23024 2.40833 4.66611 3.08932C4.56321 3.18647 4.59642 3.06044 4.65544 2.95853C4.70241 2.86951 4.78766 2.8042 4.86 2.72682C4.88957 2.86322 4.97591 3.01644 4.92936 3.11793C4.87679 3.22587 4.71025 3.28769 4.66007 3.09578C4.88818 2.45107 4.90347 2.16326 4.95016 1.88065C4.99602 1.57308 5.10468 1.2759 5.12558 0.969172C5.13988 0.837538 5.05186 0.63441 4.9435 0.56936C4.86051 0.515946 4.64364 0.566972 4.5399 0.639163C3.49338 1.46131 3.17398 2.73361 2.6753 3.87456C2.34471 4.62888 2.00768 5.37718 1.7085 6.13669C1.33472 7.09232 1.14459 8.12296 0.953611 9.12864C0.2709 12.7802 0.320782 16.4882 0.668853 20.1487C0.83392 21.8981 0.85264 23.7523 1.72551 25.378C1.64833 27.1667 2.56901 28.7283 2.90104 30.4283C3.17182 31.7932 4.00754 33.0578 4.60103 34.3618C5.22157 35.7274 6.03797 36.974 6.7687 38.2734C7.00798 38.7025 7.26366 39.0624 7.56322 39.427C7.82367 39.743 8.01739 40.1174 8.2107 40.4794C8.59085 41.1973 9.28866 41.7047 9.64821 42.367C10.061 43.1276 10.7804 43.5343 11.1839 44.2014C12.1961 45.8848 13.818 46.9419 15.1256 48.3093C15.3779 48.5694 15.7146 48.7391 15.7435 49.2253C15.7579 49.4684 16.134 49.8804 16.3783 49.9034C17.2052 49.9755 17.6134 50.5988 18.0608 51.0896C19.3516 52.5138 20.961 53.5713 22.5024 54.6498C23.7115 55.5021 24.8533 56.5816 26.366 56.9928C27.1908 57.9331 28.3955 58.286 29.4219 58.9072C30.3847 59.4931 31.4422 59.9259 32.464 60.4098C33.156 60.7425 33.8483 61.0877 34.5635 61.3696C35.228 61.6283 36.0045 61.6896 36.6035 62.0441C37.4704 62.5645 38.4766 62.5869 39.3483 63.0634C39.9146 63.3753 40.6507 63.3506 41.3054 63.5034C42.1614 63.6994 43.0229 63.8765 43.8621 64.1293C45.7236 64.6974 47.6569 64.8009 49.5715 65.0924C50.218 65.1893 50.8434 64.8435 51.5424 65.0136C52.2159 65.172 52.9075 64.9364 53.5402 64.6216C53.5347 64.4594 53.5297 64.3096 53.5242 64.1475C53.4081 64.0389 53.2301 63.945 53.182 63.8155C53.0636 63.451 53.3943 63.6272 53.529 63.5477C53.6517 63.4812 53.8281 63.3441 53.8312 63.2503C53.8203 62.3701 54.325 62.8902 54.7406 62.8075C55.2585 62.4216 55.6437 62.1775 56.0358 61.952C56.2196 61.8459 56.285 61.3753 56.5889 61.6835C56.6792 61.7679 56.5115 62.167 56.3874 62.3773C56.2991 62.5364 56.0766 62.6064 55.9505 62.7543C55.8303 62.8957 55.7603 63.2291 55.6665 63.226C55.3731 63.2296 55.076 63.121 54.7856 63.0308C54.7667 63.0252 54.8095 62.8114 54.7406 62.8075C54.4766 63.1286 54.1099 63.3658 54.1399 63.5147C54.2599 64.1102 53.7171 63.9411 53.5242 64.1475C53.5297 64.3096 53.5347 64.4594 53.5402 64.6216C53.6627 64.7361 53.8015 64.9625 53.9008 64.9467C55.1357 64.7115 56.3634 64.4453 57.5974 64.1852C57.6904 64.1633 57.7841 64.1664 57.8775 64.157C57.8495 64.2517 57.8541 64.3889 57.7938 64.4534C56.251 66.1166 54.7929 67.8832 53.1009 69.3828C52.3066 70.0903 51.5659 70.9084 50.6986 71.4872C49.6909 72.1644 49.0069 73.1804 48.0479 73.8185C47.1685 74.4102 46.4287 75.2532 45.2557 75.4738C44.2751 75.6567 44.1306 76.742 44.8605 77.4606C45.1575 77.7504 45.3593 77.8061 45.6469 77.4467C46.0849 76.9136 46.0673 77.3201 46.1045 77.6811C46.1224 77.8428 46.2065 78.1148 46.3007 78.1304C47.9606 78.4617 49.4355 78.3059 50.9232 77.2315C52.4109 76.1572 54.0211 75.1974 55.6523 74.3056C55.7871 74.2262 55.9734 74.1949 56.0509 74.0861C56.9322 72.8074 58.3391 72.1168 59.4017 71.0318C59.9511 70.4699 60.6489 70.0468 61.237 69.5211C61.8311 68.989 62.237 68.2446 63.0911 68.016C63.2706 67.9662 63.5242 67.7079 63.5312 67.5453C63.5346 66.5334 64.3295 65.6573 64.0193 64.606C63.9978 64.5255 63.9454 64.4524 63.9055 64.3788C63.7836 64.4703 63.6364 64.5502 63.5529 64.6654C63.4577 64.806 63.7442 65.3397 63.214 64.9891C62.9393 64.8048 62.7365 64.5305 62.4733 64.3208C62.377 64.2429 62.1766 64.2246 62.066 64.2783C61.8383 64.3797 61.6437 64.5361 61.4298 64.6745C61.4168 64.2877 61.3659 63.8897 61.4221 63.5193C61.4373 63.4127 61.7656 63.3329 61.9571 63.2702C62.0621 63.2355 62.195 63.2872 62.281 63.2469C62.5143 63.1266 62.9459 63.518 63.0148 62.9661C63.0733 62.477 63.5491 61.9551 62.9101 61.5269C62.4754 61.2293 62.2612 60.6182 61.5823 60.6723C61.464 60.6826 61.3442 60.4618 61.1984 60.398C60.8427 60.2226 61.2688 59.5212 60.6389 59.5487C60.028 59.5818 60.3538 58.8713 59.9173 58.7049C59.5818 58.5725 59.2276 58.2535 59.073 57.9277C58.3935 56.4829 57.0063 55.7177 55.976 54.6095C55.639 54.2461 55.2887 53.8582 54.8742 53.6036C54.4979 53.3727 54.2038 53.1703 53.9714 52.7597C53.7592 52.3921 53.3511 52.1435 53.0223 51.8361C52.6612 51.4985 52.3117 51.1355 51.9265 50.8238C51.5602 50.5176 51.0975 50.3146 50.7863 49.9753C50.5335 49.7028 50.2484 49.5812 49.9491 49.4102C48.9553 48.8316 47.9913 48.2083 47.0152 47.5979C46.5431 47.3015 46.5633 47.3446 45.5326 47.7103C45.2056 47.8275 44.7678 47.6236 44.3806 47.6242C43.6686 47.6232 43.7129 47.6404 43.6628 48.379C43.62 49.1486 43.8265 49.7163 44.4434 50.2326C45.4649 51.0788 46.2727 52.2569 47.3994 52.8873C48.8313 53.6822 49.8272 54.879 50.9987 55.9137C51.668 56.5032 52.1389 57.318 52.76 57.9591C53.1159 58.3281 53.3908 58.8871 54.0697 58.8331C54.1631 58.8237 54.3006 59.0127 54.3736 59.1413C54.506 59.3617 54.5892 59.6087 54.7276 59.8227C55.0314 60.3121 55.785 60.4366 55.8214 61.1473C55.2211 61.3112 54.6208 61.475 54.0205 61.6389C53.8162 61.6895 53.6114 61.7276 53.3754 61.9541C53.3349 62.0492 53.3195 61.9622 53.3045 61.8878C53.3793 61.8853 53.4417 61.8832 53.5166 61.8807C53.5131 61.962 53.5096 62.0433 53.4875 62.1314C53.488 62.1439 53.3942 62.1409 53.3694 61.9606C53.1936 61.7479 52.9717 61.6492 52.7858 61.6929C51.3361 62.0415 50.0937 62.0521 48.3566 61.842C47.1087 61.6905 45.9554 61.0111 44.6448 61.2238C44.4585 61.2551 44.2399 60.8815 43.9938 60.8085C42.7637 60.444 41.528 60.0984 40.3091 59.696C39.7913 59.5261 39.3149 59.105 38.7175 58.9814C38.6671 58.9707 38.6457 58.8902 38.5954 58.8794C38.1481 58.7633 37.7007 58.6472 37.2534 58.5311C37.2918 57.8178 36.5526 57.9364 36.2169 57.6105C35.9074 57.3211 35.3748 57.2704 34.9508 57.1035C34.7607 57.0225 34.5818 56.9036 34.4154 56.7843C33.5246 56.1086 32.7147 55.2427 31.7131 54.8018C30.8638 54.4307 30.4162 53.5652 29.6467 53.3413C28.7637 53.0837 28.4064 52.3026 27.7188 51.9136C25.2669 50.5035 23.5363 48.2572 21.4026 46.468C21.152 46.2578 20.9282 45.7345 20.51 46.2981C20.4262 46.2198 20.3549 46.141 20.271 46.0626C20.6972 45.736 20.3291 45.5611 20.1637 45.2856C19.3629 43.9448 18.7627 43.3717 17.3264 42.6332C17.1359 42.5397 16.992 42.3447 16.8428 42.1811C16.8106 42.1509 16.8671 41.9741 16.9226 41.9535C17.0702 41.8861 17.4978 41.9716 17.2257 41.681C16.6037 41.015 15.8547 40.4719 15.7958 39.4621C14.9375 39.3848 15.2949 38.4984 14.9076 38.1243C14.4816 37.7139 14.1055 37.3019 13.8926 36.7283C13.6797 36.1546 13.3436 35.6351 13.0567 35.0889C13.0099 34.9968 12.9385 34.918 12.8672 34.8392C12.4919 34.4522 11.8206 34.175 12.3017 33.4406C11.1215 32.5185 11.4338 31.0341 10.9689 29.8382C10.5241 28.6853 10.2889 27.4504 9.9427 26.2567C9.74451 25.5639 9.50932 24.8848 9.23459 24.1446C9.21524 24.1266 9.25392 24.1627 9.28617 24.1929C9.20654 24.2393 9.12732 24.2981 9.0404 24.3135C9.01545 24.3144 8.9678 24.1973 8.92827 24.1362C9.00916 24.1272 9.09608 24.1118 9.22855 24.1511C9.27063 23.7312 9.24863 23.2636 9.13903 22.6053C9.0852 22.6758 9.16635 22.8604 9.12373 22.893C8.97738 22.9979 8.79192 23.0541 8.6258 23.1284C8.58249 22.955 8.46347 22.7591 8.51521 22.6263C8.54927 22.5252 8.80484 22.5103 9.13301 22.6117C9.58036 22.172 9.02146 21.7099 8.94662 21.1566C8.86054 21.1969 8.76844 21.2438 8.68237 21.2841C8.78653 21.2244 8.80125 21.1053 8.8035 20.9865ZM8.27527 7.70801C8.2663 7.62712 8.25088 7.54021 8.24191 7.45933C8.31677 7.45681 8.37914 7.4547 8.454 7.45218C8.45049 7.53348 8.44096 7.62124 8.42498 7.70297C8.4254 7.71545 8.33161 7.71236 8.34439 7.34971C8.33893 7.18751 8.33389 7.03779 8.32842 6.87559C7.98541 6.51867 8.4054 6.37962 8.5355 6.1629C8.53004 6.0007 8.525 5.85098 8.51954 5.68878C8.17652 5.33186 8.59654 5.19283 8.82912 4.86648C8.79295 4.90517 8.76281 4.93741 8.72664 4.9761C8.68024 4.89648 8.62136 4.81726 8.60595 4.73035C8.60511 4.70539 8.72216 4.65774 8.78328 4.61821C8.79225 4.6991 8.80767 4.78601 8.72019 4.97007C9.06321 5.327 8.64321 5.46605 8.51311 5.68277C8.51857 5.84496 8.52361 5.99469 8.52907 6.15688C8.87209 6.51381 8.45207 6.65284 8.32197 6.86956C8.33388 7.03778 8.34538 7.19353 8.27527 7.70801ZM8.08415 8.89482C8.07518 8.81393 8.05977 8.72701 8.0508 8.64613C8.12566 8.6436 8.18803 8.64149 8.26289 8.63897C8.25938 8.72028 8.24984 8.80805 8.23386 8.88978C8.23428 8.90226 8.1405 8.89917 8.24972 8.43334C8.21355 8.47203 8.18341 8.50427 8.14724 8.54296C8.10085 8.46333 8.04197 8.38412 8.02655 8.29721C8.02571 8.27225 8.14277 8.22458 8.20389 8.18505C8.22534 8.26552 8.24034 8.33997 8.08415 8.89482ZM7.95571 9.71728C7.96117 9.87947 7.96619 10.0292 7.90855 10.5432C7.89958 10.4623 7.88417 10.3754 7.8752 10.2945C7.95006 10.292 8.01245 10.2899 8.08731 10.2874C8.0838 10.3687 8.07427 10.4565 8.05828 10.5382C8.0587 10.5507 7.96491 10.5476 7.97768 10.1849C7.97222 10.0227 7.96719 9.87303 8.05818 9.60766C8.02202 9.64635 7.98585 9.68504 7.95571 9.71728C7.90931 9.63765 7.85043 9.55844 7.83501 9.47153C7.83417 9.44657 7.95122 9.39892 8.01235 9.35939C8.02776 9.4463 8.04319 9.53322 7.95571 9.71728ZM7.71098 11.724C7.70201 11.6431 7.6866 11.5562 7.67763 11.4753C7.75249 11.4728 7.81488 11.4707 7.88974 11.4682C7.88623 11.5495 7.87671 11.6373 7.86072 11.719C7.86114 11.7315 7.76734 11.7284 7.87656 11.2625C7.84039 11.3012 7.81025 11.3335 7.77408 11.3721C7.72769 11.2925 7.66883 11.2133 7.65341 11.1264C7.65257 11.1015 7.76962 11.0538 7.83074 11.0143C7.85219 11.0947 7.86759 11.1816 7.71098 11.724ZM7.58297 12.559C7.58843 12.7211 7.59347 12.8709 7.59893 13.0331C7.60439 13.1953 7.60943 13.345 7.5518 13.859C7.54283 13.7782 7.52742 13.6912 7.51845 13.6103C7.59331 13.6078 7.65568 13.6057 7.73053 13.6032C7.72703 13.6845 7.72353 13.7658 7.70152 13.854C7.70194 13.8665 7.60815 13.8634 7.62092 13.5007C7.61546 13.3385 7.61042 13.1888 7.60496 13.0266C7.5995 12.8644 7.59445 12.7147 7.68545 12.4493C7.64928 12.488 7.61914 12.5203 7.58297 12.559C7.53657 12.4793 7.47769 12.4001 7.46227 12.3132C7.46143 12.2882 7.57849 12.2406 7.63961 12.2011C7.65502 12.288 7.67003 12.3624 7.58297 12.559ZM7.4169 14.6755C7.42236 14.8377 7.42741 14.9874 7.43287 15.1496C7.43833 15.3118 7.44337 15.4615 7.38574 15.9755C7.37677 15.8947 7.36135 15.8077 7.35238 15.7269C7.42724 15.7243 7.48961 15.7222 7.56447 15.7197C7.56096 15.801 7.55143 15.8888 7.53545 15.9705C7.53587 15.983 7.44208 15.9799 7.45486 15.6172C7.4494 15.455 7.44435 15.3053 7.43889 15.1431C7.43343 14.9809 7.42839 14.8312 7.51938 14.5658C7.48321 14.6045 7.44704 14.6432 7.4169 14.6755C7.3705 14.5958 7.31162 14.5166 7.2962 14.4297C7.29536 14.4048 7.41241 14.3571 7.47354 14.3176C7.4954 14.4105 7.50438 14.4914 7.4169 14.6755ZM7.68649 24.9087C7.67752 24.8278 7.6621 24.7409 7.65313 24.66C7.72799 24.6575 7.79036 24.6554 7.86522 24.6529C7.86171 24.7342 7.85219 24.822 7.8362 24.9037C7.83662 24.9162 7.74284 24.9131 7.85206 24.4472C7.81589 24.4859 7.78575 24.5182 7.74958 24.5569C7.70319 24.4772 7.64431 24.398 7.62889 24.3111C7.62805 24.2862 7.7451 24.2385 7.80622 24.199C7.82767 24.2794 7.83665 24.3603 7.68649 24.9087ZM12.2335 35.3102C12.1526 35.3192 12.0657 35.3346 11.9848 35.3436C11.9823 35.2687 11.9802 35.2063 11.9777 35.1315C12.059 35.135 12.1468 35.1445 12.2285 35.1605C12.241 35.1601 12.2379 35.2539 11.772 35.1446C11.8107 35.1808 11.843 35.211 11.8817 35.2471C11.802 35.2935 11.7228 35.3524 11.6359 35.3678C11.611 35.3687 11.5633 35.2516 11.5238 35.1905C11.6042 35.169 11.6847 35.1476 12.2335 35.3102ZM3.8212 27.3371C3.78097 27.0699 3.73949 26.7653 3.70404 26.4542C3.70278 26.4168 3.80007 26.3386 3.80652 26.3446C3.88993 26.4105 4.01076 26.4751 4.0451 26.5677C4.12023 26.7587 4.15835 26.9635 4.18399 27.1688C4.19254 27.2372 4.12666 27.3206 4.0724 27.3786C4.05432 27.398 3.9782 27.3631 3.90858 26.2225C3.87241 26.2612 3.84226 26.2935 3.80609 26.3321C3.75969 26.2525 3.70081 26.1733 3.68539 26.0864C3.68455 26.0614 3.80161 26.0138 3.86274 25.9742C3.87815 26.0612 3.89961 26.1416 3.8212 27.3371ZM3.46771 25.5566C3.35164 25.4481 3.21834 25.3839 3.20292 25.297C2.99507 24.3172 2.7188 23.346 2.66024 22.3487C2.63741 21.8561 2.27337 21.4312 2.504 20.8614C2.6885 20.4055 2.66792 19.7941 2.28369 19.3262C2.87812 18.4318 1.92503 17.5771 2.20151 16.6997C2.5401 15.6266 2.38483 14.5389 2.2988 13.4676C2.20857 12.2715 3.057 11.1313 2.44191 9.92788C2.42173 9.88484 2.42483 9.79107 2.45539 9.7713C3.18535 9.37825 2.61944 8.52295 3.07759 8.03288C2.81449 7.26732 3.52217 6.76885 3.60575 6.09778C3.61529 6.01003 3.75002 5.93056 3.82236 5.85318C3.86918 5.94529 3.92846 6.03696 3.94429 6.13635C3.96868 6.30415 3.99953 6.47799 3.96111 6.63542C3.21787 9.60199 3.08848 12.6228 3.09719 15.664C3.09773 16.0512 3.2501 16.4957 3.11088 16.8127C2.84325 17.3963 3.09963 17.9622 2.99419 18.5403C2.87318 19.2127 2.96594 19.9277 3.42923 20.5179C3.48811 20.5971 3.53016 20.7331 3.5017 20.8153C2.99123 22.1627 3.62004 23.4031 3.86896 24.675C3.90708 24.8798 3.90258 25.1173 3.83444 25.3194C3.79434 25.427 3.59039 25.49 4.07932 5.69464C3.93647 5.71819 3.82503 5.74692 3.71316 5.76317C3.72227 5.66294 3.69915 5.53257 3.74737 5.48098C3.85027 5.38384 3.99227 5.33533 4.11494 5.26875C4.10624 5.38145 4.09194 5.5131 3.46771 25.5566ZM5.4147 19.9452C4.97256 19.7977 4.68827 19.7011 4.40398 19.6045C4.46174 19.4652 4.47393 19.2712 4.57768 19.199C4.90011 18.9446 5.03104 19.3086 5.2172 19.4585C5.28813 19.5248 5.30565 19.6741 5.4147 19.9452ZM12.0022 36.7857C12.0767 36.5896 12.1027 36.4325 12.1522 36.4184C12.4254 36.3717 12.6999 36.3625 12.974 36.3408C12.9395 36.4294 12.926 36.5859 12.864 36.6005C12.5985 36.6906 12.3249 36.7248 12.0022 36.7857ZM5.44072 21.2746C5.18852 21.3893 5.10245 21.4296 5.00993 21.464C5.02465 21.3448 5.00754 21.208 5.05409 21.1065C5.09545 21.0364 5.21981 21.0197 5.31836 20.979C5.37247 21.102 5.42012 21.2191 5.44072 21.2746ZM52.7835 63.4792C52.6762 63.6327 52.6056 63.76 52.4966 63.8636C52.4665 63.8958 52.3396 63.8376 52.2575 63.8091C52.3281 63.6819 52.3919 63.5361 52.4755 63.4208C52.5061 63.4011 52.6389 63.4528 52.7835 63.4792ZM7.6255 38.4944C7.6234 38.432 7.62172 38.3821 7.62004 38.3322C7.69574 38.3546 7.78349 38.3641 7.85358 38.4055C7.87896 38.4171 7.85694 38.5053 7.85862 38.5552C7.78293 38.5328 7.70723 38.5103 7.6255 38.4944ZM16.1981 41.3971C16.2722 41.3696 16.3526 41.3482 16.4266 41.3207C16.4283 41.3706 16.4498 41.4511 16.4317 41.4704C16.3645 41.5164 16.2776 41.5318 16.2036 41.5593C16.2084 41.5154 16.2067 41.4655 16.1981 41.3971ZM8.83262 32.2396C8.90664 32.2121 8.98711 32.1907 9.06113 32.1632C9.06281 32.2131 9.08425 32.2936 9.06617 32.3129C8.99902 32.3589 8.91211 32.3743 8.83809 32.4018C8.83641 32.3519 8.83472 32.302 8.83262 32.2396ZM9.67484 29.2447C9.60082 29.2722 9.52035 29.2937 9.44633 29.3211C9.44465 29.2712 9.42321 29.1908 9.4413 29.1714C9.50845 29.1254 9.59536 29.11 9.66938 29.0825C9.67106 29.1324 9.67274 29.1824 9.67484 29.2447ZM7.47753 26.8643C7.55155 26.8368 7.63201 26.8154 7.70603 26.7879C7.70771 26.8378 7.72916 26.9183 7.71107 26.9376C7.64392 26.9836 7.55701 26.999 7.48299 27.0265C7.47528 26.983 7.47963 26.9267 7.47753 26.8643ZM47.2569 62.0102C47.259 62.0726 47.2607 62.1225 47.2623 62.1724C47.1866 62.15 47.0989 62.1404 47.0288 62.0991C47.0034 62.0875 47.0254 61.9993 47.0238 61.9494C47.0995 61.9718 47.1812 61.9878 47.2569 62.0102ZM9.30001 25.1604C9.30211 25.2228 9.30378 25.2727 9.30546 25.3226C9.22976 25.3002 9.142 25.2906 9.0719 25.2493C9.04653 25.2376 9.06855 25.1495 9.06687 25.0996C9.14257 25.122 9.22431 25.138 9.30001 25.1604ZM7.78263 22.0139C7.70861 22.0414 7.62814 22.0628 7.55412 22.0903C7.55244 22.0404 7.531 21.9599 7.54908 21.9406C7.61623 21.8946 7.70314 21.8792 7.77716 21.8517C7.77884 21.9016 7.78053 21.9515 7.78263 22.0139ZM57.1392 62.0772C57.1376 62.0273 57.1161 61.9468 57.1342 61.9275C57.2013 61.8815 57.2883 61.8661 57.3623 61.8386C57.364 61.8885 57.3854 61.969 57.3673 61.9883C57.3062 62.0279 57.2193 62.0433 57.1392 62.0772ZM59.4001 64.1183C59.3726 64.0442 59.3511 63.9638 59.3237 63.8898C59.3736 63.8881 59.454 63.8666 59.4734 63.8847C59.5194 63.9519 59.5348 64.0388 59.5623 64.1128C59.5123 64.1145 59.4624 64.1162 59.4001 64.1183ZM4.20482 4.78485C4.17734 4.71083 4.15591 4.63036 4.12843 4.55634C4.17834 4.55466 4.2588 4.53322 4.27815 4.5513C4.32412 4.61845 4.33954 4.70537 4.36702 4.77939C4.32959 4.78065 4.27365 4.78877 4.20482 4.78485Z" fill="#222222"/>
</svg>
