<svg width="97" height="20" viewBox="0 0 97 20" fill="none" xmlns="http://www.w3.org/2000/svg">
<path d="M9.79132 2.29288V4.30874H6.28156V15H3.74374V4.30874H0.251983V2.29288H9.79132ZM17.1279 4.8847C18.2798 4.8847 19.1978 5.26268 19.8817 6.01862C20.5657 6.77457 20.9077 7.8365 20.9077 9.2044V15H18.3878V9.49238C18.3878 8.70044 18.1838 8.08848 17.7759 7.65651C17.3679 7.21254 16.8099 6.99056 16.102 6.99056C15.382 6.99056 14.8061 7.22454 14.3741 7.69251C13.9421 8.16047 13.7262 8.83243 13.7262 9.70837V15H11.1883V1.68092H13.7262V7.02655C13.9901 6.3546 14.4221 5.83264 15.0221 5.46066C15.634 5.07669 16.336 4.8847 17.1279 4.8847ZM22.8526 2.16689C22.8526 1.75892 22.9966 1.42894 23.2846 1.17696C23.5726 0.912977 23.9506 0.780987 24.4185 0.780987C24.8865 0.780987 25.2645 0.912977 25.5525 1.17696C25.8404 1.42894 25.9844 1.75892 25.9844 2.16689C25.9844 2.56286 25.8404 2.89284 25.5525 3.15682C25.2645 3.4088 24.8865 3.5348 24.4185 3.5348C23.9506 3.5348 23.5726 3.4088 23.2846 3.15682C22.9966 2.89284 22.8526 2.56286 22.8526 2.16689ZM25.6785 5.02869V15H23.1406V5.02869H25.6785ZM33.9139 4.8847C35.0658 4.8847 35.9837 5.26268 36.6677 6.01862C37.3516 6.77457 37.6936 7.8365 37.6936 9.2044V15H35.1738V9.49238C35.1738 8.70044 34.9698 8.08848 34.5618 7.65651C34.1538 7.21254 33.5959 6.99056 32.8879 6.99056C32.168 6.99056 31.592 7.22454 31.1601 7.69251C30.7281 8.16047 30.5121 8.83243 30.5121 9.70837V15H27.9743V5.02869H30.5121V7.02655C30.7761 6.3546 31.2081 5.83264 31.808 5.46066C32.42 5.07669 33.1219 4.8847 33.9139 4.8847ZM45.7582 15L42.4644 10.6443V15H39.9266V1.68092H42.4644V9.1684L45.7402 5.02869H48.746L44.5522 9.99635L48.854 15H45.7582ZM96.2044 12.3542V15H93.4686V12.3542H96.2044Z" fill="#222222"/>
<path d="M59.4634 9.63637C59.4634 9.88835 59.4334 10.1763 59.3734 10.5003H52.0659C52.1019 11.3883 52.3419 12.0422 52.7858 12.4622C53.2298 12.8821 53.7818 13.0921 54.4417 13.0921C55.0297 13.0921 55.5156 12.9481 55.8996 12.6602C56.2956 12.3722 56.5476 11.9822 56.6556 11.4902H59.3374C59.2054 12.1862 58.9234 12.8102 58.4914 13.3621C58.0595 13.9141 57.5015 14.346 56.8176 14.658C56.1456 14.97 55.3957 15.126 54.5677 15.126C53.5958 15.126 52.7318 14.922 51.9759 14.514C51.2199 14.0941 50.632 13.5001 50.212 12.7322C49.792 11.9642 49.5821 11.0583 49.5821 10.0143C49.5821 8.97042 49.792 8.06448 50.212 7.29653C50.632 6.51659 51.2199 5.92263 51.9759 5.51466C52.7318 5.10669 53.5958 4.9027 54.5677 4.9027C55.5516 4.9027 56.4096 5.10669 57.1415 5.51466C57.8855 5.92263 58.4554 6.48659 58.8514 7.20654C59.2594 7.91449 59.4634 8.72444 59.4634 9.63637ZM56.9076 9.38439C56.9435 8.56845 56.7276 7.95049 56.2596 7.53052C55.8036 7.11055 55.2397 6.90056 54.5677 6.90056C53.8838 6.90056 53.3078 7.11055 52.8398 7.53052C52.3719 7.95049 52.1139 8.56845 52.0659 9.38439H56.9076ZM65.1707 4.9027C66.0106 4.9027 66.7306 5.10069 67.3305 5.49666C67.9305 5.89263 68.3564 6.42659 68.6084 7.09855V5.02869H71.1283V15H68.6084V12.9121C68.3564 13.5841 67.9305 14.1241 67.3305 14.532C66.7306 14.928 66.0106 15.126 65.1707 15.126C64.3307 15.126 63.5748 14.922 62.9028 14.514C62.2309 14.1061 61.7029 13.5181 61.3189 12.7502C60.947 11.9702 60.761 11.0583 60.761 10.0143C60.761 8.97042 60.947 8.06448 61.3189 7.29653C61.7029 6.51659 62.2309 5.92263 62.9028 5.51466C63.5748 5.10669 64.3307 4.9027 65.1707 4.9027ZM65.9626 7.11655C65.1707 7.11655 64.5347 7.37453 64.0547 7.89049C63.5748 8.40646 63.3348 9.11441 63.3348 10.0143C63.3348 10.9143 63.5748 11.6222 64.0547 12.1382C64.5347 12.6422 65.1707 12.8941 65.9626 12.8941C66.7306 12.8941 67.3605 12.6362 67.8525 12.1202C68.3564 11.5922 68.6084 10.8903 68.6084 10.0143C68.6084 9.12641 68.3564 8.42446 67.8525 7.90849C67.3605 7.38053 66.7306 7.11655 65.9626 7.11655ZM76.8659 4.9027C78.0778 4.9027 79.0498 5.20868 79.7817 5.82064C80.5137 6.43259 80.9696 7.24854 81.1496 8.26847H78.7738C78.6778 7.7885 78.4618 7.40453 78.1258 7.11655C77.7898 6.82857 77.3519 6.68458 76.8119 6.68458C76.3799 6.68458 76.044 6.78657 75.804 6.99056C75.564 7.19454 75.444 7.47052 75.444 7.8185C75.444 8.09448 75.54 8.31646 75.732 8.48445C75.924 8.65244 76.164 8.78443 76.4519 8.88042C76.7399 8.97642 77.1539 9.09041 77.6939 9.2224C78.4498 9.39039 79.0618 9.57038 79.5297 9.76236C80.0097 9.94235 80.4177 10.2363 80.7536 10.6443C81.1016 11.0403 81.2756 11.5802 81.2756 12.2642C81.2756 13.1161 80.9396 13.8061 80.2677 14.334C79.6077 14.862 78.7138 15.126 77.5859 15.126C76.29 15.126 75.252 14.838 74.4721 14.2621C73.6921 13.6741 73.2182 12.8401 73.0502 11.7602H75.48C75.54 12.2522 75.756 12.6422 76.128 12.9301C76.4999 13.2061 76.9859 13.3441 77.5859 13.3441C78.0178 13.3441 78.3478 13.2421 78.5758 13.0381C78.8038 12.8222 78.9178 12.5462 78.9178 12.2102C78.9178 11.9222 78.8158 11.6882 78.6118 11.5082C78.4198 11.3283 78.1738 11.1903 77.8738 11.0943C77.5859 10.9983 77.1719 10.8843 76.6319 10.7523C75.888 10.5843 75.282 10.4163 74.8141 10.2483C74.3581 10.0683 73.9621 9.78636 73.6261 9.40239C73.3022 9.01841 73.1402 8.49045 73.1402 7.8185C73.1402 6.95456 73.4701 6.25261 74.1301 5.71264C74.7901 5.17268 75.702 4.9027 76.8659 4.9027ZM84.8756 5.02869L87.5935 11.7962L90.1133 5.02869H92.9031L86.8015 19.7517H83.9937L86.2435 14.712L82.0498 5.02869H84.8756Z" fill="#375F59"/>
</svg>
