<svg width="110" height="123" viewBox="0 0 110 123" fill="none" xmlns="http://www.w3.org/2000/svg">
<path d="M94.814 33.3796C95.368 32.9242 95.9331 32.4598 96.6007 31.7812C96.672 32.0939 96.6176 32.5471 96.5832 33.0023C96.543 33.5181 96.3841 34.2057 97.1741 34.1504C97.8723 34.0964 97.7213 33.348 97.7374 32.8706C97.7456 32.474 97.6125 32.0635 97.4664 31.6824C97.4339 31.5977 97.116 31.6176 96.6098 31.7923C95.8308 31.8384 95.2854 31.5812 95.6457 30.7095C95.7149 30.5227 95.5791 30.2444 95.5403 30.0165C95.5659 29.754 95.5896 29.5118 95.6153 29.2493C95.6409 28.9869 95.6646 28.7447 95.6902 28.4822C95.7159 28.2198 95.7396 27.9775 95.7652 27.7151C96.1406 26.7939 96.4646 25.8779 95.6422 25.0128C95.6679 24.7504 95.6916 24.5081 95.7172 24.2457C95.7429 23.9832 95.7666 23.741 95.7922 23.4786C95.8179 23.2161 95.8416 22.9739 95.8672 22.7114C96.2426 21.7902 96.5665 20.8742 95.7442 20.0092C95.7698 19.7467 95.7935 19.5045 95.8192 19.242C96.4124 18.6988 95.7458 18.4298 95.5572 18.0649C95.5829 17.8025 95.6066 17.5602 95.6323 17.2978C96.1605 16.5852 96.0289 15.9507 95.4342 15.3627C95.4599 15.1002 95.4836 14.858 95.5092 14.5955C96.0375 13.8829 95.9059 13.2484 95.3112 12.6604C95.3369 12.3979 95.3606 12.1557 95.3862 11.8933C95.9794 11.35 95.3127 11.0811 95.1242 10.7162C95.1499 10.4537 95.1736 10.2115 95.1992 9.94902C95.2249 9.68658 95.2486 9.44432 95.2742 9.18188C95.8674 8.63865 95.2008 8.36966 95.0123 8.00476C95.038 7.74232 95.0617 7.50008 95.0873 7.23764C95.113 6.9752 95.1367 6.73294 95.1623 6.4705C95.7555 5.92727 95.0889 5.65828 94.9004 5.29338C94.9858 5.14889 95.0602 5.01351 95.1365 4.85793C95.4328 4.22453 94.8365 3.3408 95.6973 2.87468C95.9651 3.47152 96.2217 4.07748 96.4985 4.6854C96.4729 4.94784 96.4492 5.19006 96.4565 5.74105C96.5123 5.89936 96.5463 5.76001 96.5784 5.64086C96.4572 5.62902 96.3563 5.61916 96.2352 5.60732C96.2324 5.73953 96.2297 5.87176 96.2562 6.01702C96.2543 6.03721 96.4067 6.0419 96.4656 5.75214C96.4583 5.20115 96.482 4.95891 96.5076 4.69647C96.8804 4.42721 97.7157 4.74324 97.6209 3.83722C98.1743 4.01361 98.7218 4.25056 99.2922 4.35728C99.4426 4.38218 99.8063 4.10186 99.824 3.92017C99.9291 3.05407 100.047 2.15869 99.9888 1.29699C99.9566 0.896429 99.421 0.538332 100.329 0.62715C101.752 0.776396 101.818 0.721755 102.106 2.15615C102.264 2.93588 102.533 3.62455 103.377 4.78726C103.534 4.95545 103.493 4.74765 103.408 4.57628C103.341 4.42707 103.21 4.31233 103.1 4.17936C103.038 4.39747 102.882 4.63698 102.947 4.80638C103.021 4.98685 103.285 5.10436 103.386 4.79836C103.083 3.72931 103.088 3.26103 103.042 2.79792C102.999 2.29445 102.854 1.80129 102.852 1.30176C102.842 1.08682 103.006 0.766563 103.188 0.67231C103.329 0.594295 103.675 0.699504 103.836 0.827314C105.447 2.26888 105.834 4.36505 106.524 6.26681C106.982 7.52422 107.451 8.77254 107.857 10.0351C108.364 11.6234 108.566 13.3143 108.771 14.9649C109.5 20.9567 109.035 26.9642 108.091 32.8639C107.643 35.6834 107.42 38.6882 105.836 41.2338C105.776 44.1423 104.121 46.5791 103.407 49.3014C102.826 51.4865 101.34 53.4505 100.243 55.5036C99.095 57.6536 97.642 59.5904 96.3225 61.6217C95.89 62.2927 95.4381 62.8498 94.9146 63.41C94.4595 63.8954 94.1066 64.4825 93.7557 65.0494C93.0649 66.1741 91.8808 66.9246 91.2291 67.9614C90.4809 69.1518 89.2722 69.7368 88.5489 70.7768C86.7332 73.4016 83.9937 74.9476 81.7317 77.0295C81.2956 77.425 80.732 77.6655 80.6349 78.4508C80.5863 78.8435 79.9337 79.4726 79.5351 79.4846C78.1869 79.5159 77.4605 80.4842 76.6841 81.2337C74.4435 83.4094 71.7242 84.9574 69.113 86.5465C67.0641 87.8034 65.1008 89.4355 62.6053 89.9456C61.1704 91.3848 59.1803 91.8322 57.4516 92.7332C55.8298 93.5835 54.0701 94.1757 52.363 94.8546C51.2066 95.3224 50.0481 95.8103 48.8592 96.1934C47.7549 96.544 46.4895 96.5629 45.4814 97.0758C44.0218 97.8298 42.3878 97.7618 40.925 98.4442C39.9744 98.8913 38.7833 98.7749 37.7059 98.9549C36.2977 99.184 34.8822 99.3819 33.4953 99.7049C30.418 100.433 27.2724 100.401 24.1375 100.675C23.0791 100.765 22.1009 100.14 20.9498 100.343C19.8412 100.53 18.7442 100.077 17.751 99.5005C17.7766 99.238 17.8003 98.9958 17.826 98.7333C18.0254 98.5694 18.3238 98.4356 18.4152 98.2305C18.645 97.6517 18.0905 97.9032 17.8803 97.7604C17.6883 97.6397 17.4163 97.3991 17.421 97.2467C17.5299 95.8205 16.6577 96.6116 15.9923 96.4345C15.1926 95.7551 14.5931 95.3194 13.9807 94.9131C13.6937 94.722 13.6365 93.9521 13.1117 94.4205C12.9566 94.548 13.1872 95.2125 13.3666 95.5663C13.4933 95.8335 13.8468 95.97 14.036 96.2229C14.2162 96.4647 14.2951 97.0124 14.4475 97.0171C14.9229 97.0534 15.4161 96.9081 15.8962 96.792C15.9274 96.7848 15.8803 96.4337 15.9923 96.4345C16.3871 96.9826 16.9572 97.4052 16.8931 97.6435C16.6369 98.5967 17.5345 98.3788 17.826 98.7333C17.8003 98.9958 17.7766 99.238 17.751 99.5005C17.5404 99.6735 17.2919 100.026 17.1324 99.9903C15.1543 99.481 13.1913 98.9222 11.2172 98.3725C11.0687 98.3275 10.9163 98.3227 10.7659 98.2979C10.8016 98.4542 10.7799 98.6763 10.8709 98.7871C13.2003 101.644 15.3817 104.659 17.9699 107.267C19.1846 108.496 20.3009 109.899 21.6473 110.928C23.2112 112.13 24.215 113.849 25.704 114.983C27.0687 116.033 28.181 117.477 30.0601 117.956C31.6312 118.354 31.7532 120.129 30.4952 121.219C29.9835 121.658 29.6506 121.727 29.2214 121.115C28.5664 120.205 28.5528 120.866 28.4551 121.447C28.4093 121.708 28.2448 122.14 28.0904 122.156C25.3645 122.521 22.989 122.115 20.688 120.219C18.3869 118.323 15.8753 116.6 13.3226 114.985C13.1124 114.842 12.8135 114.772 12.6991 114.587C11.4026 112.423 9.19277 111.157 7.58205 109.288C6.74938 108.32 5.66184 107.561 4.76267 106.648C3.8544 105.723 3.27339 104.474 1.91204 104.015C1.62622 103.916 1.24176 103.471 1.24724 103.206C1.34655 101.565 0.148374 100.062 0.76027 98.3896C0.803382 98.2613 0.895961 98.1481 0.968368 98.0329C1.15642 98.1939 1.38685 98.3387 1.5104 98.5342C1.65019 98.7721 1.1303 99.6078 2.02631 99.0942C2.49093 98.8237 2.84824 98.4001 3.29663 98.0873C3.46087 97.9708 3.78781 97.962 3.96161 98.0606C4.32028 98.2485 4.6196 98.5223 4.95215 98.7688C5.01335 98.143 5.13706 97.5029 5.08425 96.8966C5.07075 96.722 4.54663 96.5586 4.2426 96.4372C4.07594 96.37 3.8551 96.4401 3.71971 96.3657C3.3539 96.1465 2.61348 96.7365 2.55902 95.8344C2.51487 95.0353 1.79738 94.1397 2.87781 93.5117C3.61354 93.0741 4.02416 92.1054 5.11946 92.2634C5.31024 92.2923 5.52746 91.9466 5.77047 91.8583C6.36533 91.6108 5.74712 90.4294 6.76561 90.5391C7.75282 90.6561 7.29811 89.4703 8.02319 89.2457C8.58086 89.0658 9.18836 88.5851 9.47283 88.0728C10.7242 85.8005 13.0529 84.7034 14.8384 83.0132C15.4225 82.4589 16.0308 81.8661 16.7293 81.4963C17.3633 81.1608 17.8612 80.863 18.2806 80.2213C18.6628 79.6472 19.3503 79.2864 19.9154 78.822C20.5359 78.312 21.1402 77.7597 21.7971 77.294C22.4228 76.8355 23.1942 76.5543 23.7339 76.0364C24.172 75.6206 24.647 75.4531 25.15 75.2067C26.8213 74.3715 28.4492 73.4607 30.0951 72.572C30.8914 72.1403 30.8542 72.208 32.4876 72.9078C33.0058 73.1317 33.7368 72.8465 34.3646 72.8875C35.5192 72.9597 35.4456 72.983 35.4503 74.1859C35.4399 75.4383 35.0463 76.3373 33.9925 77.1107C32.2484 78.377 30.8164 80.2037 28.9242 81.1091C26.5199 82.2497 24.7811 84.0872 22.7743 85.6437C21.6278 86.5302 20.7799 87.8026 19.7062 88.7778C19.0909 89.3393 18.5873 90.2174 17.492 90.0593C17.3416 90.0344 17.099 90.3266 16.9672 90.5277C16.7298 90.8714 16.5692 91.2633 16.3227 91.5958C15.7794 92.3579 14.5445 92.4818 14.4118 93.6305C15.3682 93.9584 16.3246 94.2862 17.281 94.6141C17.6072 94.7174 17.9353 94.8004 18.2945 95.1922C18.3503 95.3505 18.3843 95.2111 18.4164 95.092C18.2952 95.0801 18.1943 95.0703 18.0732 95.0584C18.0704 95.1907 18.0677 95.3228 18.0943 95.4681C18.0923 95.4883 18.2447 95.493 18.3036 95.2033C18.6106 94.8766 18.9807 94.7396 19.2776 94.8297C21.5922 95.5452 23.6058 95.6911 26.4442 95.5304C28.4835 95.4139 30.4239 94.4317 32.5271 94.9125C32.8259 94.9825 33.2192 94.3993 33.6257 94.3066C35.6582 93.8429 37.6978 93.4105 39.7159 92.8843C40.5732 92.6625 41.3892 92.0289 42.3709 91.8905C42.4536 91.8782 42.4967 91.75 42.5794 91.7377C43.3168 91.5958 44.0542 91.4539 44.7916 91.312C44.8031 90.1514 45.9895 90.4203 46.5677 89.9265C47.0995 89.4894 47.9683 89.4623 48.6732 89.2357C48.9899 89.124 49.2922 88.9497 49.5744 88.7735C51.089 87.7701 52.4918 86.45 54.1617 85.8388C55.5774 85.325 56.3928 83.9679 57.6638 83.6846C59.1223 83.3584 59.7826 82.1288 60.9378 81.5692C65.0598 79.5368 68.0988 76.0737 71.7441 73.3933C72.1722 73.0786 72.5893 72.2531 73.209 73.2105C73.353 73.0921 73.4769 72.9717 73.6209 72.8533C72.9637 72.2796 73.5787 72.034 73.8755 71.6045C75.313 69.5133 76.3454 68.6462 78.751 67.5974C79.0696 67.4655 79.3232 67.1642 79.582 66.9144C79.6375 66.8689 79.5642 66.5763 79.4763 66.5372C79.2439 66.4126 78.5417 66.507 79.013 66.0639C80.0906 65.0483 81.3614 64.2453 81.5616 62.614C82.9612 62.5776 82.4736 61.1033 83.1404 60.5367C83.8737 59.9154 84.5262 59.2863 84.9309 58.3782C85.3356 57.47 85.9343 56.6624 86.4562 55.8065C86.5416 55.662 86.6655 55.5416 86.7893 55.4213C87.4379 54.8325 88.5553 54.4526 87.8512 53.2119C89.8604 51.839 89.5079 49.3997 90.3857 47.5086C91.2263 45.6852 91.7357 43.7071 92.4207 41.8073C92.8139 40.7044 93.2656 39.6277 93.7878 38.4559C93.821 38.4286 93.7545 38.4832 93.6991 38.5288C93.8234 38.6123 93.9458 38.7159 94.0852 38.7499C94.1255 38.7539 94.2149 38.569 94.2853 38.474C94.1551 38.4511 94.0158 38.4171 93.7969 38.467C93.7722 37.7819 93.8563 37.0258 94.1022 35.9697C94.1822 36.0896 94.0315 36.3805 94.0972 36.4379C94.3237 36.6231 94.6186 36.7335 94.8802 36.8712C94.9684 36.5944 95.1817 36.2892 95.1116 36.0683C95.0668 35.9009 94.654 35.8504 94.1113 35.9807C93.4315 35.2213 94.3856 34.53 94.5643 33.6405C94.6997 33.7149 94.8442 33.8003 94.9796 33.8747C94.8169 33.7671 94.8053 33.5723 94.814 33.3796ZM97.0463 11.9027C97.0692 11.7725 97.1032 11.6331 97.1261 11.5029C97.005 11.4911 96.9041 11.4812 96.783 11.4693C96.7802 11.6016 96.7866 11.7448 96.804 11.879C96.8021 11.8992 96.9545 11.9039 96.9713 11.3145C96.997 11.0521 97.0207 10.8098 97.0463 10.5474C97.6395 10.0042 96.9729 9.73519 96.7844 9.37028C96.81 9.10785 96.8337 8.86559 96.8594 8.60315C97.4526 8.05992 96.7859 7.79096 96.4426 7.23768C96.4972 7.30417 96.5428 7.35957 96.5974 7.42605C96.6809 7.30174 96.7846 7.1794 96.8186 7.04006C96.8225 6.99968 96.6377 6.91028 96.5426 6.83985C96.5197 6.97008 96.4857 7.10941 96.6085 7.41694C96.0153 7.96017 96.6819 8.22916 96.8704 8.59406C96.8448 8.8565 96.8211 9.09876 96.7954 9.3612C96.2022 9.90443 96.8689 10.1734 97.0574 10.5383C97.0207 10.8098 96.9859 11.0612 97.0463 11.9027ZM97.2332 13.847C97.2562 13.7167 97.2901 13.5774 97.3131 13.4472C97.1919 13.4353 97.091 13.4254 96.9699 13.4136C96.9672 13.5458 96.9735 13.6891 96.991 13.8233C96.989 13.8435 97.1414 13.8482 97.0126 13.0815C97.0672 13.148 97.1127 13.2034 97.1674 13.2699C97.2509 13.1456 97.3545 13.0232 97.3885 12.8839C97.3925 12.8435 97.2076 12.7541 97.1126 12.6836C97.0695 12.8119 97.0374 12.9311 97.2332 13.847ZM97.3563 15.1939C97.3306 15.4564 97.307 15.6986 97.3472 16.5381C97.3701 16.4079 97.4041 16.2685 97.427 16.1383C97.3059 16.1265 97.2049 16.1166 97.0838 16.1048C97.0811 16.237 97.0874 16.3803 97.1049 16.5145C97.1029 16.5347 97.2553 16.5393 97.2722 15.9499C97.2979 15.6875 97.3215 15.4453 97.2015 15.0056C97.2561 15.072 97.3108 15.1385 97.3563 15.1939C97.4398 15.0696 97.5435 14.9473 97.5775 14.8079C97.5814 14.7676 97.3965 14.6781 97.3015 14.6077C97.2675 14.7471 97.2335 14.8864 97.3563 15.1939ZM97.5452 18.4733C97.5681 18.343 97.6021 18.2037 97.6251 18.0735C97.5039 18.0616 97.403 18.0518 97.2819 18.0399C97.2791 18.1721 97.2855 18.3154 97.3029 18.4496C97.3009 18.4698 97.4534 18.4745 97.3245 17.7078C97.3792 17.7743 97.4247 17.8297 97.4793 17.8962C97.5628 17.7718 97.6665 17.6495 97.7005 17.5102C97.7044 17.4698 97.5196 17.3804 97.4245 17.31C97.3814 17.4382 97.3475 17.5776 97.5452 18.4733ZM97.6663 19.8404C97.6406 20.1029 97.6169 20.3451 97.5913 20.6076C97.5656 20.87 97.5419 21.1123 97.5821 21.9518C97.6051 21.8216 97.6391 21.6822 97.662 21.552C97.5409 21.5401 97.4399 21.5302 97.3188 21.5184C97.3161 21.6506 97.3133 21.7828 97.3399 21.9281C97.3379 21.9483 97.4903 21.953 97.5072 21.3636C97.5328 21.1012 97.5565 20.8589 97.5822 20.5965C97.6078 20.334 97.6315 20.0918 97.5115 19.652C97.5661 19.7185 97.6116 19.7739 97.6663 19.8404C97.7498 19.7161 97.8535 19.5938 97.8875 19.4544C97.8914 19.414 97.7065 19.3246 97.6115 19.2542C97.5775 19.3935 97.5455 19.5127 97.6663 19.8404ZM97.7163 23.2896C97.6906 23.5521 97.6669 23.7943 97.6413 24.0568C97.6156 24.3192 97.5919 24.5615 97.6321 25.401C97.655 25.2708 97.6891 25.1314 97.712 25.0012C97.5909 24.9893 97.4899 24.9795 97.3688 24.9676C97.3661 25.0998 97.3724 25.2431 97.3899 25.3773C97.3879 25.3975 97.5403 25.4022 97.5572 24.8128C97.5828 24.5504 97.6065 24.3081 97.6322 24.0457C97.6578 23.7832 97.6815 23.541 97.5615 23.1013C97.6161 23.1677 97.6708 23.2342 97.7163 23.2896C97.7998 23.1653 97.9035 23.043 97.9375 22.9036C97.9414 22.8633 97.7565 22.7739 97.6615 22.7034C97.6164 22.8519 97.5935 22.9821 97.7163 23.2896ZM96.2189 39.8553C96.2418 39.7251 96.2758 39.5858 96.2988 39.4555C96.1776 39.4437 96.0767 39.4338 95.9556 39.422C95.9529 39.5542 95.9592 39.6975 95.9767 39.8316C95.9747 39.8518 96.1271 39.8565 95.9982 39.0899C96.0529 39.1563 96.0984 39.2117 96.1531 39.2782C96.2365 39.1539 96.3402 39.0316 96.3742 38.8922C96.3782 38.8519 96.1933 38.7624 96.0983 38.692C96.0552 38.8203 96.0322 38.9505 96.2189 39.8553ZM87.768 56.2507C87.8983 56.2736 88.0376 56.3076 88.1679 56.3305C88.1797 56.2094 88.1896 56.1084 88.2014 55.9873C88.0692 55.9846 87.9259 55.991 87.7917 56.0084C87.7715 56.0064 87.7668 56.1588 88.5335 56.03C88.467 56.0846 88.4116 56.1302 88.3451 56.1848C88.4694 56.2683 88.5918 56.372 88.7311 56.406C88.7715 56.4099 88.8609 56.225 88.9314 56.13C88.8031 56.0869 88.6748 56.0438 87.768 56.2507ZM102.235 44.1935C102.328 43.7644 102.427 43.2748 102.516 42.774C102.522 42.7135 102.373 42.5766 102.362 42.5857C102.22 42.6839 102.017 42.7761 101.952 42.9226C101.81 43.2247 101.727 43.5528 101.664 43.883C101.643 43.993 101.741 44.1351 101.823 44.2348C101.851 44.268 101.978 44.2193 102.209 42.3771C102.263 42.4436 102.309 42.499 102.364 42.5655C102.447 42.4412 102.551 42.3188 102.585 42.1795C102.589 42.1391 102.404 42.0497 102.309 41.9793C102.275 42.1186 102.232 42.2469 102.235 44.1935ZM102.993 41.343C103.192 41.1791 103.415 41.0888 103.449 40.9494C103.888 39.3823 104.436 37.836 104.634 36.2249C104.722 35.4285 105.357 34.7772 105.042 33.8293C104.79 33.071 104.887 32.0818 105.558 31.3628C104.687 29.851 106.321 28.5637 105.964 27.1123C105.526 25.3371 105.89 23.5895 106.141 21.8612C106.411 19.9311 105.153 17.9943 106.275 16.1067C106.312 16.039 106.317 15.8866 106.27 15.8514C105.127 15.1384 106.133 13.8101 105.441 12.968C105.947 11.7539 104.851 10.8723 104.785 9.77545C104.779 9.63217 104.568 9.48935 104.459 9.35639C104.374 9.50089 104.268 9.64339 104.232 9.80291C104.175 10.0725 104.107 10.3512 104.153 10.6104C105.051 15.4978 104.948 20.4097 104.618 25.3402C104.577 25.9679 104.284 26.673 104.477 27.2013C104.851 28.1754 104.376 29.0665 104.487 30.0149C104.614 31.1176 104.39 32.2675 103.577 33.1766C103.473 33.2989 103.391 33.5151 103.429 33.6512C104.117 35.889 102.969 37.8352 102.433 39.8718C102.35 40.2 102.333 40.5856 102.423 40.9204C102.476 41.0989 102.801 41.2223 104.059 9.07268C104.288 9.12566 104.466 9.1838 104.645 9.22175C104.641 9.05827 104.692 8.84927 104.619 8.76062C104.462 8.59244 104.237 8.49906 104.045 8.37838C104.048 8.56205 104.057 8.77699 102.993 41.343ZM100.417 32.0422C101.149 31.8489 101.62 31.7217 102.091 31.5945C102.012 31.3625 102.012 31.0467 101.852 30.9189C101.355 30.4729 101.105 31.0497 100.788 31.2734C100.666 31.3736 100.622 31.6139 100.417 32.0422ZM87.9904 58.6671C87.8897 58.3414 87.864 58.0841 87.7852 58.056C87.347 57.952 86.9028 57.9086 86.4607 57.845C86.5074 57.9922 86.513 58.2475 86.612 58.2776C87.0332 58.4512 87.4734 58.535 87.9904 58.6671ZM100.237 34.1951C100.634 34.4072 100.769 34.4816 100.916 34.5468C100.904 34.3521 100.946 34.132 100.881 33.9626C100.822 33.8447 100.622 33.8048 100.466 33.7284C100.366 33.9224 100.276 34.1072 100.237 34.1951ZM19.0963 97.7264C19.2543 97.9864 19.3557 98.2002 19.5216 98.3794C19.5671 98.4348 19.7789 98.3536 19.915 98.316C19.8136 98.1023 19.7253 97.8593 19.6017 97.6638C19.5542 97.6285 19.3334 97.6986 19.0963 97.7264ZM94.9102 61.8912C94.9201 61.7903 94.928 61.7096 94.9359 61.6288C94.8108 61.6573 94.6675 61.6637 94.5496 61.7235C94.5073 61.7398 94.5338 61.885 94.5259 61.9658C94.651 61.9372 94.7761 61.9087 94.9102 61.8912ZM80.7086 65.71C80.5915 65.6577 80.4632 65.6147 80.346 65.5624C80.3381 65.6432 80.295 65.7714 80.3224 65.8047C80.4265 65.8862 80.5658 65.9202 80.683 65.9724C80.6798 65.9008 80.6877 65.82 80.7086 65.71ZM93.6009 51.6239C93.4837 51.5717 93.3554 51.5286 93.2383 51.4763C93.2304 51.5571 93.1873 51.6853 93.2146 51.7186C93.3187 51.8001 93.458 51.8341 93.5752 51.8863C93.5831 51.8056 93.591 51.7248 93.6009 51.6239ZM92.5455 46.6803C92.6627 46.7325 92.7909 46.7757 92.9081 46.8279C92.916 46.7471 92.9591 46.6189 92.9318 46.5856C92.8277 46.5041 92.6883 46.4701 92.5711 46.4179C92.5633 46.4986 92.5554 46.5794 92.5455 46.6803ZM96.3551 43.048C96.238 42.9958 96.1097 42.9527 95.9925 42.9005C95.9846 42.9812 95.9415 43.1095 95.9688 43.1427C96.073 43.2242 96.2123 43.2582 96.3295 43.3104C96.3465 43.2408 96.3453 43.1489 96.3551 43.048ZM28.2101 95.9171C28.2002 96.018 28.1923 96.0987 28.1844 96.1795C28.3095 96.151 28.4528 96.1446 28.5707 96.0848C28.6131 96.0685 28.5865 95.9233 28.5944 95.8425C28.4693 95.8711 28.3352 95.8885 28.2101 95.9171ZM93.5764 40.0963C93.5666 40.1972 93.5587 40.2779 93.5508 40.3587C93.6759 40.3302 93.8192 40.3238 93.9371 40.264C93.9795 40.2478 93.9529 40.1025 93.9608 40.0217C93.8357 40.0503 93.7015 40.0678 93.5764 40.0963ZM96.3629 35.1513C96.4801 35.2035 96.6084 35.2466 96.7256 35.2988C96.7334 35.2181 96.7766 35.0898 96.7492 35.0566C96.6451 34.9751 96.5058 34.9411 96.3886 34.8889C96.3807 34.9696 96.3728 35.0504 96.3629 35.1513ZM12.1785 95.0018C12.1864 94.9211 12.2295 94.7928 12.2022 94.7596C12.0981 94.6781 11.9587 94.6441 11.8416 94.5918C11.8337 94.6726 11.7906 94.8008 11.8179 94.8341C11.9129 94.9045 12.0522 94.9385 12.1785 95.0018ZM8.30106 98.0772C8.35328 97.96 8.39638 97.8318 8.4486 97.7146C8.36785 97.7067 8.23959 97.6636 8.20636 97.6909C8.12485 97.795 8.09083 97.9344 8.03861 98.0516C8.11936 98.0594 8.20012 98.0673 8.30106 98.0772ZM103.95 7.58441C104.002 7.46723 104.045 7.33898 104.097 7.2218C104.016 7.2139 103.888 7.1708 103.855 7.19812C103.773 7.30224 103.739 7.44157 103.687 7.55875C103.748 7.56467 103.838 7.58365 103.95 7.58441Z" fill="#222222"/>
</svg>
